<mxfile host="app.diagrams.net" modified="2023-05-16T23:30:21.769Z" agent="Mozilla/5.0 (Windows NT 10.0; Win64; x64) AppleWebKit/537.36 (KHTML, like Gecko) Chrome/113.0.0.0 Safari/537.36" etag="Y2mcYZcwUN4KKGbfLleL" version="21.3.2" type="github">
  <diagram name="Página-1" id="d7paZ73-x0o64YWhw-Jc">
    <mxGraphModel dx="1310" dy="542" grid="1" gridSize="10" guides="1" tooltips="1" connect="1" arrows="1" fold="1" page="1" pageScale="1" pageWidth="827" pageHeight="1169" math="0" shadow="0">
      <root>
        <mxCell id="0" />
        <mxCell id="1" parent="0" />
        <mxCell id="Xmtex0wUcxxoa7ordoWG-6" value="" style="image;aspect=fixed;perimeter=ellipsePerimeter;html=1;align=center;shadow=0;dashed=0;spacingTop=3;image=img/lib/active_directory/databases.svg;" vertex="1" parent="1">
          <mxGeometry x="644" y="450.00000000000006" width="50.82" height="49.8" as="geometry" />
        </mxCell>
        <mxCell id="Xmtex0wUcxxoa7ordoWG-10" style="edgeStyle=orthogonalEdgeStyle;rounded=0;orthogonalLoop=1;jettySize=auto;html=1;exitX=1;exitY=0.5;exitDx=0;exitDy=0;entryX=0;entryY=0.5;entryDx=0;entryDy=0;startArrow=classic;startFill=1;" edge="1" parent="1" source="Xmtex0wUcxxoa7ordoWG-8" target="Xmtex0wUcxxoa7ordoWG-6">
          <mxGeometry relative="1" as="geometry" />
        </mxCell>
        <mxCell id="Xmtex0wUcxxoa7ordoWG-8" value="" style="image;aspect=fixed;perimeter=ellipsePerimeter;html=1;align=center;shadow=0;dashed=0;spacingTop=3;image=img/lib/active_directory/web_server.svg;" vertex="1" parent="1">
          <mxGeometry x="526" y="450.20000000000005" width="40" height="50" as="geometry" />
        </mxCell>
        <mxCell id="Xmtex0wUcxxoa7ordoWG-11" style="edgeStyle=orthogonalEdgeStyle;rounded=0;orthogonalLoop=1;jettySize=auto;html=1;exitX=1;exitY=0.5;exitDx=0;exitDy=0;entryX=0;entryY=0.5;entryDx=0;entryDy=0;startArrow=classicThin;startFill=1;endArrow=classicThin;endFill=1;" edge="1" parent="1" source="Xmtex0wUcxxoa7ordoWG-9" target="Xmtex0wUcxxoa7ordoWG-21">
          <mxGeometry relative="1" as="geometry" />
        </mxCell>
        <mxCell id="Xmtex0wUcxxoa7ordoWG-9" value="" style="image;aspect=fixed;perimeter=ellipsePerimeter;html=1;align=center;shadow=0;dashed=0;spacingTop=3;image=img/lib/active_directory/vista_client.svg;" vertex="1" parent="1">
          <mxGeometry x="422.9" y="449.8" width="38" height="50" as="geometry" />
        </mxCell>
        <mxCell id="Xmtex0wUcxxoa7ordoWG-33" style="edgeStyle=orthogonalEdgeStyle;rounded=0;orthogonalLoop=1;jettySize=auto;html=1;exitX=1;exitY=0.5;exitDx=0;exitDy=0;entryX=0;entryY=0.5;entryDx=0;entryDy=0;startArrow=classicThin;startFill=1;endArrow=classicThin;endFill=1;" edge="1" parent="1" source="Xmtex0wUcxxoa7ordoWG-13" target="Xmtex0wUcxxoa7ordoWG-17">
          <mxGeometry relative="1" as="geometry" />
        </mxCell>
        <mxCell id="Xmtex0wUcxxoa7ordoWG-37" style="edgeStyle=orthogonalEdgeStyle;rounded=0;orthogonalLoop=1;jettySize=auto;html=1;exitX=0.5;exitY=0;exitDx=0;exitDy=0;startArrow=classicThin;startFill=1;endArrow=classicThin;endFill=1;entryX=0.25;entryY=1;entryDx=0;entryDy=0;" edge="1" parent="1" source="Xmtex0wUcxxoa7ordoWG-13" target="Xmtex0wUcxxoa7ordoWG-29">
          <mxGeometry relative="1" as="geometry">
            <mxPoint x="445.9499999999999" y="645" as="targetPoint" />
            <Array as="points">
              <mxPoint x="446.05" y="680" />
              <mxPoint x="552.05" y="680" />
            </Array>
          </mxGeometry>
        </mxCell>
        <mxCell id="Xmtex0wUcxxoa7ordoWG-13" value="" style="image;aspect=fixed;perimeter=ellipsePerimeter;html=1;align=center;shadow=0;dashed=0;spacingTop=3;image=img/lib/active_directory/users.svg;" vertex="1" parent="1">
          <mxGeometry x="422.85" y="717.5" width="46.2" height="70" as="geometry" />
        </mxCell>
        <mxCell id="Xmtex0wUcxxoa7ordoWG-18" value="" style="group" vertex="1" connectable="0" parent="1">
          <mxGeometry x="583.15" y="710" width="142" height="95" as="geometry" />
        </mxCell>
        <mxCell id="Xmtex0wUcxxoa7ordoWG-14" value="" style="image;aspect=fixed;perimeter=ellipsePerimeter;html=1;align=center;shadow=0;dashed=0;spacingTop=3;image=img/lib/active_directory/vista_client.svg;" vertex="1" parent="Xmtex0wUcxxoa7ordoWG-18">
          <mxGeometry x="26.100000000000023" y="15" width="38" height="50" as="geometry" />
        </mxCell>
        <mxCell id="Xmtex0wUcxxoa7ordoWG-15" value="" style="image;aspect=fixed;perimeter=ellipsePerimeter;html=1;align=center;shadow=0;dashed=0;spacingTop=3;image=img/lib/active_directory/cell_phone.svg;" vertex="1" parent="Xmtex0wUcxxoa7ordoWG-18">
          <mxGeometry x="87" y="15" width="21" height="50" as="geometry" />
        </mxCell>
        <mxCell id="Xmtex0wUcxxoa7ordoWG-17" value="" style="rounded=1;whiteSpace=wrap;html=1;fillColor=none;" vertex="1" parent="Xmtex0wUcxxoa7ordoWG-18">
          <mxGeometry width="142" height="85" as="geometry" />
        </mxCell>
        <mxCell id="Xmtex0wUcxxoa7ordoWG-19" value="Usuários externos" style="text;html=1;align=center;verticalAlign=middle;resizable=0;points=[];autosize=1;strokeColor=none;fillColor=none;" vertex="1" parent="Xmtex0wUcxxoa7ordoWG-18">
          <mxGeometry x="11" y="55" width="120" height="30" as="geometry" />
        </mxCell>
        <mxCell id="Xmtex0wUcxxoa7ordoWG-20" value="" style="rounded=1;whiteSpace=wrap;html=1;fillColor=none;" vertex="1" parent="1">
          <mxGeometry x="410" y="410" width="328" height="150" as="geometry" />
        </mxCell>
        <mxCell id="Xmtex0wUcxxoa7ordoWG-21" value="" style="rounded=1;whiteSpace=wrap;html=1;fillColor=none;" vertex="1" parent="1">
          <mxGeometry x="502" y="420" width="228" height="110" as="geometry" />
        </mxCell>
        <mxCell id="Xmtex0wUcxxoa7ordoWG-22" value="Instalação" style="text;html=1;align=center;verticalAlign=middle;resizable=0;points=[];autosize=1;strokeColor=none;fillColor=none;" vertex="1" parent="1">
          <mxGeometry x="534" y="530" width="80" height="30" as="geometry" />
        </mxCell>
        <mxCell id="Xmtex0wUcxxoa7ordoWG-23" value="&lt;p style=&quot;line-height: 10%;&quot;&gt;&lt;font style=&quot;font-size: 11px;&quot;&gt;Aplicação com Electron + Servidor&lt;/font&gt;&lt;/p&gt;" style="text;html=1;align=center;verticalAlign=middle;resizable=0;points=[];autosize=1;strokeColor=none;fillColor=none;spacing=0;" vertex="1" parent="1">
          <mxGeometry x="518" y="490" width="190" height="40" as="geometry" />
        </mxCell>
        <mxCell id="Xmtex0wUcxxoa7ordoWG-24" value="NodeJs" style="text;html=1;align=center;verticalAlign=middle;resizable=0;points=[];autosize=1;strokeColor=none;fillColor=none;" vertex="1" parent="1">
          <mxGeometry x="506" y="425" width="60" height="30" as="geometry" />
        </mxCell>
        <mxCell id="Xmtex0wUcxxoa7ordoWG-25" value="&lt;font style=&quot;font-size: 10px;&quot;&gt;Banco de Dados&lt;br&gt;(SQLite)&lt;/font&gt;" style="text;html=1;align=center;verticalAlign=middle;resizable=0;points=[];autosize=1;strokeColor=none;fillColor=none;spacing=0;" vertex="1" parent="1">
          <mxGeometry x="624.41" y="415" width="90" height="40" as="geometry" />
        </mxCell>
        <mxCell id="Xmtex0wUcxxoa7ordoWG-29" value="" style="image;aspect=fixed;perimeter=ellipsePerimeter;html=1;align=center;shadow=0;dashed=0;spacingTop=3;image=img/lib/active_directory/my_sites.svg;" vertex="1" parent="1">
          <mxGeometry x="538.05" y="600" width="50" height="45" as="geometry" />
        </mxCell>
        <mxCell id="Xmtex0wUcxxoa7ordoWG-30" value="Site (SPA)" style="text;html=1;align=center;verticalAlign=middle;resizable=0;points=[];autosize=1;strokeColor=none;fillColor=none;" vertex="1" parent="1">
          <mxGeometry x="594.05" y="607.5" width="80" height="30" as="geometry" />
        </mxCell>
        <mxCell id="Xmtex0wUcxxoa7ordoWG-32" style="edgeStyle=orthogonalEdgeStyle;rounded=0;orthogonalLoop=1;jettySize=auto;html=1;exitX=0.5;exitY=0;exitDx=0;exitDy=0;endArrow=classicThin;endFill=1;startArrow=classicThin;startFill=1;entryX=0.75;entryY=1;entryDx=0;entryDy=0;" edge="1" parent="1" source="Xmtex0wUcxxoa7ordoWG-17" target="Xmtex0wUcxxoa7ordoWG-29">
          <mxGeometry relative="1" as="geometry">
            <Array as="points">
              <mxPoint x="654.05" y="680" />
              <mxPoint x="574.05" y="680" />
            </Array>
          </mxGeometry>
        </mxCell>
        <mxCell id="Xmtex0wUcxxoa7ordoWG-38" style="edgeStyle=orthogonalEdgeStyle;rounded=0;orthogonalLoop=1;jettySize=auto;html=1;exitX=0.25;exitY=0;exitDx=0;exitDy=0;entryX=0.48;entryY=0.951;entryDx=0;entryDy=0;entryPerimeter=0;startArrow=classicThin;startFill=1;endArrow=classicThin;endFill=1;" edge="1" parent="1" source="Xmtex0wUcxxoa7ordoWG-29" target="Xmtex0wUcxxoa7ordoWG-9">
          <mxGeometry relative="1" as="geometry">
            <mxPoint x="340" y="570" as="targetPoint" />
            <mxPoint x="441.9000000000001" y="630" as="sourcePoint" />
            <Array as="points">
              <mxPoint x="552" y="580" />
              <mxPoint x="441" y="580" />
            </Array>
          </mxGeometry>
        </mxCell>
        <mxCell id="Xmtex0wUcxxoa7ordoWG-45" value="HTTP/Websocket" style="text;html=1;align=center;verticalAlign=middle;resizable=0;points=[];autosize=1;strokeColor=none;fillColor=none;rotation=0;flipV=1;flipH=0;fontStyle=1;fontSize=10;" vertex="1" parent="1">
          <mxGeometry x="504" y="560" width="110" height="30" as="geometry" />
        </mxCell>
        <mxCell id="Xmtex0wUcxxoa7ordoWG-39" style="edgeStyle=orthogonalEdgeStyle;rounded=0;orthogonalLoop=1;jettySize=auto;html=1;startArrow=classicThin;startFill=1;endArrow=classicThin;endFill=1;exitX=0.75;exitY=0;exitDx=0;exitDy=0;" edge="1" parent="1" source="Xmtex0wUcxxoa7ordoWG-29">
          <mxGeometry relative="1" as="geometry">
            <mxPoint x="650" y="530" as="targetPoint" />
            <mxPoint x="590" y="620" as="sourcePoint" />
            <Array as="points">
              <mxPoint x="574" y="580" />
              <mxPoint x="650" y="580" />
            </Array>
          </mxGeometry>
        </mxCell>
        <mxCell id="Xmtex0wUcxxoa7ordoWG-47" value="Acesso&lt;br&gt;" style="text;html=1;align=center;verticalAlign=middle;resizable=0;points=[];autosize=1;strokeColor=none;fillColor=none;" vertex="1" parent="1">
          <mxGeometry x="464.95" y="710" width="60" height="30" as="geometry" />
        </mxCell>
      </root>
    </mxGraphModel>
  </diagram>
</mxfile>
